HIERARCHY
ROOT Hips
{
	OFFSET -3.958830 18.904000 13.208200
	CHANNELS 6 Xposition Yposition Zposition Zrotation Yrotation Xrotation 
	JOINT LHipJoint
	{
		OFFSET 0.000000 0.000000 0.000000
		CHANNELS 3 Zrotation Yrotation Xrotation
		JOINT LeftUpLeg
		{
			OFFSET 1.800000 -1.400000 0.085000
			CHANNELS 3 Zrotation Yrotation Xrotation
			JOINT LeftLeg
			{
				OFFSET 2.215000 -6.000000 0.000000
				CHANNELS 3 Zrotation Yrotation Xrotation
				JOINT LeftFoot
				{
					OFFSET 2.500000 -6.900000 0.000000
					CHANNELS 3 Zrotation Yrotation Xrotation
					JOINT LeftToeBase
					{
						OFFSET 0.200000 -0.500000 1.950000
						CHANNELS 3 Zrotation Yrotation Xrotation
						End Site
						{
							OFFSET 0.000000 0.000000 0.000000
						}
					}
				}
			}
		}
	}
	JOINT RHipJoint
	{
		OFFSET 0.000000 0.000000 0.000000
		CHANNELS 3 Zrotation Yrotation Xrotation
		JOINT RightUpLeg
		{
			OFFSET -1.800000 -1.400000 0.085000
			CHANNELS 3 Zrotation Yrotation Xrotation
			JOINT RightLeg
			{
				OFFSET -2.215000 -6.000000 0.000000
				CHANNELS 3 Zrotation Yrotation Xrotation
				JOINT RightFoot
				{
					OFFSET -2.500000 -6.900000 0.000000
					CHANNELS 3 Zrotation Yrotation Xrotation
					JOINT RightToeBase
					{
						OFFSET -0.200000 -0.500000 1.950000
						CHANNELS 3 Zrotation Yrotation Xrotation
						End Site
						{
							OFFSET 0.000000 0.000000 0.000000
						}
					}
				}
			}
		}
	}
	JOINT LowerBack
	{
		OFFSET 0.000000 0.000000 0.000000
		CHANNELS 3 Zrotation Yrotation Xrotation
		JOINT Spine
		{
			OFFSET -0.087000 1.940000 -0.288900
			CHANNELS 3 Zrotation Yrotation Xrotation
			JOINT Spine1
			{
				OFFSET 0.000000 1.950000 0.060000
				CHANNELS 3 Zrotation Yrotation Xrotation
				JOINT Neck
				{
					OFFSET 0.000000 0.000000 0.000000
					CHANNELS 3 Zrotation Yrotation Xrotation
					JOINT Neck1
					{
						OFFSET 0.000000 1.600000 0.340000
						CHANNELS 3 Zrotation Yrotation Xrotation
						JOINT Head
						{
							OFFSET 0.000000 1.667000 -0.240000
							CHANNELS 3 Zrotation Yrotation Xrotation
							End Site
							{
								OFFSET 0.000000 0.000000 0.000000
							}
						}
					}
				}
				JOINT LeftShoulder
				{
					OFFSET 0.000000 0.000000 0.000000
					CHANNELS 3 Zrotation Yrotation Xrotation
					JOINT LeftArm
					{
						OFFSET 2.700000 1.550000 -0.730000
						CHANNELS 3 Zrotation Yrotation Xrotation
						JOINT LeftForeArm
						{
							OFFSET 5.450000 0.000000 0.000000
							CHANNELS 3 Zrotation Yrotation Xrotation
							JOINT LeftHand
							{
								OFFSET 3.450000 0.000000 0.000000
								CHANNELS 3 Zrotation Yrotation Xrotation
								JOINT LeftHandIndex1
								{
									OFFSET 0.750000 0.000000 0.000000
									CHANNELS 3 Zrotation Yrotation Xrotation
									End Site
									{
										OFFSET 0.000000 0.000000 0.000000
									}
								}
							}
						}
					}
				}
				JOINT RightShoulder
				{
					OFFSET 0.000000 0.000000 0.000000
					CHANNELS 3 Zrotation Yrotation Xrotation
					JOINT RightArm
					{
						OFFSET -2.700000 1.550000 -0.730000
						CHANNELS 3 Zrotation Yrotation Xrotation
						JOINT RightForeArm
						{
							OFFSET -5.450000 0.000000 0.000000
							CHANNELS 3 Zrotation Yrotation Xrotation
							JOINT RightHand
							{
								OFFSET -3.450000 0.000000 0.000000
								CHANNELS 3 Zrotation Yrotation Xrotation
								JOINT RightHandIndex1
								{
									OFFSET -0.750000 0.000000 0.000000
									CHANNELS 3 Zrotation Yrotation Xrotation
									End Site
									{
										OFFSET 0.000000 0.000000 0.000000
									}
								}
							}
						}
					}
				}
			}
		}
	}
}
MOTION
Frames: 9
Frame Time: 0.016667
-0.573960 17.309250 -2.595870 14.925169 5.554853 -8.290584 -16.212225 11.056030 7.428103 -17.408126 -18.547085 -79.304190 10.190838 6.275296 50.127370 0.890236 7.565951 1.759445 0.215230 -0.223460 0.601320 17.694777 -9.466323 1.093424 -16.962353 2.291569 -9.599057 4.483700 -5.078412 17.632055 -0.286065 -3.340780 3.162089 -0.519250 -0.390120 0.374040 -1.444764 -2.410328 -8.505363 -12.583998 20.306067 49.713539 3.244772 21.273391 -34.858065 0.688587 8.648148 -11.554833 25.727335 -16.120136 38.516804 -19.464740 6.166180 -6.674050 -14.461916 14.025841 -0.529582 -50.892479 34.422326 -15.660544 -10.030253 6.186511 -2.366981 -3.503544 2.220529 0.593620 -0.298960 0.458590 -0.004770 6.465090 1.728178 5.047368 62.277872 11.324668 -8.269135 -144.695245 -0.004681 -10.324083 2.752579 -2.408643 0.226420 -0.334580 -0.241650 -0.172640 
-0.546040 17.483020 -2.625180 14.469652 4.259765 -9.515221 -16.196222 11.253577 7.272916 -15.397797 -17.051524 -78.472977 9.905375 7.683466 58.320908 1.253854 9.265863 1.226193 0.215660 -0.213280 0.595800 17.691629 -9.511661 1.086195 -15.969611 1.983195 -8.881488 3.103320 -4.676988 16.743026 -0.297152 -3.178893 3.233100 -0.537330 -0.414350 0.378040 -1.459458 -2.522926 -8.550060 -11.645112 20.252131 51.446536 3.168850 21.708490 -34.504638 0.207287 8.369517 -11.860360 24.816424 -15.993825 39.990175 -18.628880 5.635280 -7.312890 -13.877022 13.444373 0.028828 -50.564858 35.422117 -16.209907 -13.169854 7.536484 -3.038291 -3.455520 2.243559 0.596790 -0.322180 0.478490 -0.013900 6.975800 2.146166 5.204919 61.432271 9.943771 -9.072257 -144.345382 1.101065 -15.130760 2.735351 -2.364344 0.255770 -0.352130 -0.241610 -0.163810 
-0.525870 17.665730 -2.663940 14.109001 2.927301 -10.756355 -16.173479 11.477594 7.084315 -13.322019 -15.252498 -75.964906 8.914937 9.814919 65.311484 1.636048 10.735632 0.795559 0.252570 -0.162610 0.622180 17.684725 -9.563992 1.078200 -15.454330 1.972262 -9.205380 2.375433 -4.487372 17.514345 -0.326450 -3.101479 3.248506 -0.540340 -0.470940 0.384910 -1.474271 -2.670863 -8.576081 -11.191465 20.228663 53.057692 3.512869 21.865958 -33.666665 -0.085786 8.063692 -12.153260 24.084354 -15.793215 41.916875 -17.833140 5.103160 -8.929030 -14.152964 12.662639 0.626836 -50.245338 36.356102 -16.972941 -16.770764 7.749491 -3.747513 -3.351134 2.327877 0.603180 -0.368760 0.522930 -0.014720 8.181212 2.536397 5.361732 60.735082 8.240994 -9.966348 -143.914909 3.902226 -27.156776 2.686086 -2.279361 0.304850 -0.383480 -0.273970 -0.153020 
-0.505080 17.841000 -2.716930 13.435357 1.038385 -12.036218 -16.117273 11.769961 6.808813 -11.203307 -12.810389 -71.921702 7.877136 12.214628 70.389137 1.958248 11.882216 0.492321 0.294240 -0.118980 0.642530 17.684454 -9.684893 1.124595 -14.624218 2.408784 -10.899159 1.914290 -4.348843 20.233365 -0.358496 -3.078954 3.249260 -0.545130 -0.512400 0.387410 -1.541293 -2.727137 -8.596249 -10.159089 19.759734 54.823170 3.554595 21.757335 -32.636588 -0.460484 7.327263 -12.684687 22.680839 -15.138178 45.067661 -16.536790 4.168460 -10.772980 -14.364928 11.425757 1.442055 -50.955185 37.382354 -18.200911 -20.523957 7.555862 -4.498588 -3.255264 2.390578 0.632540 -0.419250 0.565820 -0.000340 9.446135 3.594101 5.762260 60.578466 6.695318 -11.159551 -143.521011 7.980544 -44.184489 2.623178 -2.119955 0.340750 -0.390400 -0.304910 -0.142890 
-0.480630 17.991960 -2.776750 12.191414 -0.451208 -12.945750 -16.050884 12.048627 6.508453 -9.447546 -10.670545 -67.262599 7.083713 14.206888 73.644682 2.210049 12.640673 0.308006 0.332260 -0.057520 0.650750 17.692541 -9.754103 1.282152 -13.366110 3.537920 -13.655765 2.002695 -4.324784 24.787382 -0.411672 -3.237554 3.175530 -0.533790 -0.548080 0.378190 -1.627709 -2.774093 -8.653856 -8.216399 18.397783 56.379710 3.333150 21.214257 -31.295917 -0.634609 6.270104 -13.347723 20.623784 -14.225553 48.649817 -15.621510 3.132090 -12.341560 -14.920632 9.712871 2.364414 -52.000929 38.330007 -19.596682 -24.442215 6.805550 -5.217803 -3.165570 2.450521 0.645650 -0.466660 0.609570 0.018960 10.700069 5.308514 6.266668 60.817339 5.581769 -12.277096 -143.656601 12.046021 -60.455020 2.604675 -1.961440 0.373970 -0.380200 -0.337560 -0.119040 
-0.456500 18.127320 -2.842620 10.682341 -1.418309 -14.000833 -15.972759 12.349897 6.085704 -7.910136 -8.549055 -61.388391 6.229375 15.828683 74.947755 2.391322 12.997601 0.223988 0.409580 0.049800 0.679850 17.706242 -9.690668 1.646669 -12.501497 5.756967 -16.948649 3.318092 -4.823099 31.445061 -0.565336 -3.849899 2.922464 -0.506680 -0.607960 0.379340 -1.735055 -2.940859 -8.779968 -5.813116 16.292235 58.185039 3.134059 20.015724 -29.448182 -0.660974 4.487440 -14.261772 17.305455 -12.688210 53.981632 -14.235470 1.548950 -14.416850 -15.816402 7.276888 3.573598 -53.923734 39.261777 -21.604282 -28.882155 5.373995 -5.986964 -3.059376 2.538126 0.661640 -0.537760 0.677520 0.044380 12.183451 8.057727 6.963939 61.090325 4.775769 -13.791823 -143.731959 17.100791 -78.034581 2.636755 -1.801997 0.436250 -0.379290 -0.389640 -0.083800 
-0.424920 18.228310 -2.909250 8.504680 -0.906241 -15.147234 -15.903310 12.563944 5.594928 -6.729043 -7.162228 -54.903040 5.977366 16.374429 75.392858 2.483059 13.055158 0.205835 0.503880 0.172110 0.721540 17.738940 -9.383588 2.250719 -12.602069 8.830424 -20.356795 7.110573 -6.775433 39.055042 -0.853615 -5.095601 2.450384 -0.459640 -0.681420 0.382390 -1.869096 -3.277023 -9.001382 -2.560920 12.815799 60.261124 2.673154 17.847566 -26.688089 -0.159248 2.673622 -15.005135 13.388176 -10.529681 58.535371 -12.834270 -0.019740 -17.632210 -16.697894 4.565261 4.636866 -56.089233 39.073109 -23.767289 -33.532723 4.222547 -6.891051 -2.967359 2.648862 0.681960 -0.612670 0.742120 0.061470 12.758341 10.755950 7.703719 61.844071 4.769652 -14.810666 -144.496106 22.587740 -95.246376 2.690871 -1.684416 0.496330 -0.385730 -0.440790 -0.060670 
-0.382170 18.294360 -2.959800 5.529702 0.777039 -15.573333 -15.833710 12.654993 5.029801 -5.919788 -6.368621 -48.356761 6.777710 15.133502 74.032315 2.405497 12.586035 0.332420 0.559810 0.244030 0.748620 17.810721 -8.869003 3.109889 -13.880836 12.269339 -24.788084 13.398769 -10.720167 46.173348 -1.279385 -6.857535 1.850460 -0.422770 -0.717620 0.369580 -2.063653 -3.659798 -9.275116 1.592087 8.022552 61.631745 1.593922 14.933276 -24.730538 0.394286 1.340602 -15.449686 10.012996 -8.476729 61.420111 -11.897770 -1.090530 -20.010980 -17.534460 2.169607 5.521261 -56.769721 38.966314 -25.205883 -38.437580 3.828497 -8.043252 -2.896812 2.722012 0.707850 -0.661010 0.779690 0.074290 12.961002 12.483921 8.136472 63.535225 4.495118 -16.307913 -144.570772 27.690259 -107.153807 2.742705 -1.598509 0.513320 -0.360430 -0.468640 -0.050680 
-0.338870 18.316620 -3.007300 2.018964 3.118220 -15.850801 -15.753153 12.730662 4.379068 -4.854775 -5.564435 -41.793910 8.226546 12.695659 70.907087 2.225915 11.687193 0.588789 0.596560 0.291530 0.762670 17.911502 -8.306224 4.067459 -16.409116 15.172999 -29.728297 21.801976 -16.398101 50.866249 -1.801945 -8.781482 1.264167 -0.397500 -0.729510 0.356860 -2.308666 -4.071703 -9.511406 6.445404 2.499818 62.290902 0.246465 11.479769 -22.721104 0.907907 0.262343 -15.582561 6.566810 -6.303125 62.185408 -10.945890 -1.771920 -21.466040 -17.853460 0.096321 6.266550 -57.119805 38.452765 -26.340911 -43.556907 3.760037 -9.294778 -2.844526 2.804233 0.715620 -0.686320 0.796760 0.094200 12.555483 13.461541 8.424604 65.634329 4.255445 -17.674935 -144.919392 33.144150 -118.173119 2.797429 -1.562887 0.521070 -0.339790 -0.496570 -0.037760 
